<svg width="17" height="17" viewBox="0 0 17 17" fill="none" xmlns="http://www.w3.org/2000/svg">
<path d="M15.6058 12.7247L12.2245 10.369C11.7481 10.0397 11.0512 10.1591 10.7205 10.6223L9.84231 11.8852C9.78898 11.9612 9.74631 12.048 9.71786 12.1385C9.60409 12.2145 9.40143 12.3049 9.10277 12.3049C8.61211 12.3049 7.77301 12.0516 6.57837 10.8358C4.5944 8.81663 4.58018 7.93008 4.84684 7.24979C4.91084 7.22084 4.97128 7.18465 5.02461 7.14123L6.23704 6.20764C6.69925 5.85302 6.7917 5.16187 6.4397 4.66612L4.01485 1.30447C3.53131 0.631411 2.93754 0.555421 2.31533 1.09821C1.93845 1.43112 1.31268 2.22358 1.05668 2.69762C0.91091 2.95816 0.846911 3.22955 0.871799 3.50094C-0.269514 8.04587 3.1082 11.7983 4.17485 12.8477C7.09036 15.7173 9.79609 16.3035 11.5561 16.3035C12.5551 16.3035 13.2769 16.1225 13.5969 15.985C13.8458 15.9923 14.0982 15.9271 14.34 15.7788C14.8022 15.5001 15.5595 14.8416 15.8689 14.4471C16.1249 14.1251 16.228 13.8247 16.1818 13.528C16.1391 13.2277 15.9506 12.9635 15.6058 12.7247ZM15.3142 13.9984C15.0582 14.3241 14.3613 14.9356 13.9738 15.1672C13.8316 15.2541 13.6965 15.2903 13.5685 15.2758C13.4974 15.2686 13.4298 15.283 13.3658 15.3156C13.2165 15.3952 12.5658 15.6159 11.5525 15.6159C9.92408 15.6159 7.41035 15.0478 4.66551 12.3447C3.66997 11.3605 0.491361 7.82152 1.57579 3.62036C1.58645 3.57331 1.59001 3.52265 1.5829 3.47561C1.56512 3.33811 1.59356 3.2006 1.67534 3.05224C1.89223 2.6542 2.46822 1.91962 2.77754 1.64823C2.9091 1.53244 3.02998 1.4673 3.11176 1.4673C3.22554 1.4673 3.35709 1.61566 3.44598 1.7387L5.86727 5.10035C5.99171 5.27766 5.96682 5.51649 5.81038 5.6359L4.5944 6.57311C4.57307 6.59121 4.54462 6.60206 4.50196 6.61292C4.39529 6.63825 4.30641 6.71424 4.26374 6.81194C3.74819 7.95179 3.87264 9.10974 6.0806 11.3533C7.17569 12.4678 8.19611 13.0359 9.10632 13.0359C9.71787 13.0359 10.0983 12.779 10.2725 12.627C10.3365 12.5691 10.3792 12.4931 10.3899 12.4063C10.397 12.3665 10.4076 12.3339 10.4254 12.3086L11.3001 11.0457C11.4103 10.8901 11.6556 10.8539 11.8227 10.9697L15.204 13.3218C15.3711 13.4376 15.4671 13.5461 15.4778 13.6366C15.492 13.7198 15.4351 13.8501 15.3142 13.9984Z" fill="#424242" stroke="#100F0F" stroke-width="0.5"/>
</svg>
